<mxfile host="app.diagrams.net" modified="2023-08-25T13:50:18.303Z" agent="Mozilla/5.0 (X11; Linux x86_64; rv:109.0) Gecko/20100101 Firefox/110.0" etag="v5k6QbjmnELS_FAR1JNR" version="21.6.9" type="github">
  <diagram id="R2lEEEUBdFMjLlhIrx00" name="Page-1">
    <mxGraphModel dx="1434" dy="723" grid="1" gridSize="10" guides="1" tooltips="1" connect="1" arrows="1" fold="1" page="1" pageScale="1" pageWidth="850" pageHeight="1100" math="0" shadow="0" extFonts="Permanent Marker^https://fonts.googleapis.com/css?family=Permanent+Marker">
      <root>
        <mxCell id="0" />
        <mxCell id="1" parent="0" />
        <mxCell id="C-vyLk0tnHw3VtMMgP7b-12" value="" style="edgeStyle=entityRelationEdgeStyle;endArrow=ERzeroToMany;startArrow=ERone;endFill=1;startFill=0;" parent="1" target="C-vyLk0tnHw3VtMMgP7b-17" edge="1">
          <mxGeometry width="100" height="100" relative="1" as="geometry">
            <mxPoint x="700" y="165" as="sourcePoint" />
            <mxPoint x="460" y="205" as="targetPoint" />
          </mxGeometry>
        </mxCell>
        <mxCell id="LJ0KD-g8AK2NQayHYIzr-1" value="Berçario" style="whiteSpace=wrap;html=1;align=center;" vertex="1" parent="1">
          <mxGeometry x="20" y="70" width="190" height="90" as="geometry" />
        </mxCell>
        <mxCell id="LJ0KD-g8AK2NQayHYIzr-2" value="registra" style="shape=rhombus;double=1;perimeter=rhombusPerimeter;whiteSpace=wrap;html=1;align=center;" vertex="1" parent="1">
          <mxGeometry x="240" y="85" width="120" height="60" as="geometry" />
        </mxCell>
        <mxCell id="LJ0KD-g8AK2NQayHYIzr-3" value="bebês" style="swimlane;fontStyle=0;childLayout=stackLayout;horizontal=1;startSize=26;horizontalStack=0;resizeParent=1;resizeParentMax=0;resizeLast=0;collapsible=1;marginBottom=0;align=center;fontSize=14;" vertex="1" parent="1">
          <mxGeometry x="390" y="70" width="160" height="180" as="geometry" />
        </mxCell>
        <mxCell id="LJ0KD-g8AK2NQayHYIzr-4" value="&lt;div&gt;nome&lt;/div&gt;&lt;div&gt;&lt;br&gt;&lt;/div&gt;&lt;div&gt;&lt;br&gt;&lt;/div&gt;" style="text;strokeColor=none;fillColor=none;spacingLeft=4;spacingRight=4;overflow=hidden;rotatable=0;points=[[0,0.5],[1,0.5]];portConstraint=eastwest;fontSize=12;whiteSpace=wrap;html=1;" vertex="1" parent="LJ0KD-g8AK2NQayHYIzr-3">
          <mxGeometry y="26" width="160" height="30" as="geometry" />
        </mxCell>
        <mxCell id="LJ0KD-g8AK2NQayHYIzr-5" value="data de nascimento" style="text;strokeColor=none;fillColor=none;spacingLeft=4;spacingRight=4;overflow=hidden;rotatable=0;points=[[0,0.5],[1,0.5]];portConstraint=eastwest;fontSize=12;whiteSpace=wrap;html=1;" vertex="1" parent="LJ0KD-g8AK2NQayHYIzr-3">
          <mxGeometry y="56" width="160" height="30" as="geometry" />
        </mxCell>
        <mxCell id="LJ0KD-g8AK2NQayHYIzr-6" value="&lt;div&gt;mãe&lt;/div&gt;&lt;div&gt;&lt;br&gt;&lt;/div&gt;&lt;div&gt;peso&lt;/div&gt;&lt;div&gt;&lt;br&gt;&lt;/div&gt;&lt;div&gt;médico&lt;br&gt;&lt;/div&gt;" style="text;strokeColor=none;fillColor=none;spacingLeft=4;spacingRight=4;overflow=hidden;rotatable=0;points=[[0,0.5],[1,0.5]];portConstraint=eastwest;fontSize=12;whiteSpace=wrap;html=1;" vertex="1" parent="LJ0KD-g8AK2NQayHYIzr-3">
          <mxGeometry y="86" width="160" height="94" as="geometry" />
        </mxCell>
        <mxCell id="LJ0KD-g8AK2NQayHYIzr-11" value="médico" style="swimlane;fontStyle=0;childLayout=stackLayout;horizontal=1;startSize=26;horizontalStack=0;resizeParent=1;resizeParentMax=0;resizeLast=0;collapsible=1;marginBottom=0;align=center;fontSize=14;" vertex="1" parent="1">
          <mxGeometry x="570" y="310" width="160" height="116" as="geometry" />
        </mxCell>
        <mxCell id="LJ0KD-g8AK2NQayHYIzr-12" value="crm" style="text;strokeColor=none;fillColor=none;spacingLeft=4;spacingRight=4;overflow=hidden;rotatable=0;points=[[0,0.5],[1,0.5]];portConstraint=eastwest;fontSize=12;whiteSpace=wrap;html=1;" vertex="1" parent="LJ0KD-g8AK2NQayHYIzr-11">
          <mxGeometry y="26" width="160" height="30" as="geometry" />
        </mxCell>
        <mxCell id="LJ0KD-g8AK2NQayHYIzr-13" value="nome" style="text;strokeColor=none;fillColor=none;spacingLeft=4;spacingRight=4;overflow=hidden;rotatable=0;points=[[0,0.5],[1,0.5]];portConstraint=eastwest;fontSize=12;whiteSpace=wrap;html=1;" vertex="1" parent="LJ0KD-g8AK2NQayHYIzr-11">
          <mxGeometry y="56" width="160" height="30" as="geometry" />
        </mxCell>
        <mxCell id="LJ0KD-g8AK2NQayHYIzr-14" value="telefone" style="text;strokeColor=none;fillColor=none;spacingLeft=4;spacingRight=4;overflow=hidden;rotatable=0;points=[[0,0.5],[1,0.5]];portConstraint=eastwest;fontSize=12;whiteSpace=wrap;html=1;" vertex="1" parent="LJ0KD-g8AK2NQayHYIzr-11">
          <mxGeometry y="86" width="160" height="30" as="geometry" />
        </mxCell>
        <mxCell id="LJ0KD-g8AK2NQayHYIzr-15" value="Relationship" style="shape=rhombus;double=1;perimeter=rhombusPerimeter;whiteSpace=wrap;html=1;align=center;" vertex="1" parent="1">
          <mxGeometry x="580" y="100" width="120" height="60" as="geometry" />
        </mxCell>
        <mxCell id="LJ0KD-g8AK2NQayHYIzr-16" value="mãe" style="swimlane;fontStyle=0;childLayout=stackLayout;horizontal=1;startSize=26;horizontalStack=0;resizeParent=1;resizeParentMax=0;resizeLast=0;collapsible=1;marginBottom=0;align=center;fontSize=14;" vertex="1" parent="1">
          <mxGeometry x="740" y="60" width="160" height="180" as="geometry" />
        </mxCell>
        <mxCell id="LJ0KD-g8AK2NQayHYIzr-17" value="&lt;div&gt;nome&lt;/div&gt;&lt;div&gt;&lt;br&gt;&lt;/div&gt;&lt;div&gt;&lt;br&gt;&lt;/div&gt;" style="text;strokeColor=none;fillColor=none;spacingLeft=4;spacingRight=4;overflow=hidden;rotatable=0;points=[[0,0.5],[1,0.5]];portConstraint=eastwest;fontSize=12;whiteSpace=wrap;html=1;" vertex="1" parent="LJ0KD-g8AK2NQayHYIzr-16">
          <mxGeometry y="26" width="160" height="30" as="geometry" />
        </mxCell>
        <mxCell id="LJ0KD-g8AK2NQayHYIzr-18" value="data de nascimento" style="text;strokeColor=none;fillColor=none;spacingLeft=4;spacingRight=4;overflow=hidden;rotatable=0;points=[[0,0.5],[1,0.5]];portConstraint=eastwest;fontSize=12;whiteSpace=wrap;html=1;" vertex="1" parent="LJ0KD-g8AK2NQayHYIzr-16">
          <mxGeometry y="56" width="160" height="30" as="geometry" />
        </mxCell>
        <mxCell id="LJ0KD-g8AK2NQayHYIzr-19" value="&lt;div&gt;endereço&lt;/div&gt;&lt;div&gt;&lt;br&gt;&lt;/div&gt;telefone" style="text;strokeColor=none;fillColor=none;spacingLeft=4;spacingRight=4;overflow=hidden;rotatable=0;points=[[0,0.5],[1,0.5]];portConstraint=eastwest;fontSize=12;whiteSpace=wrap;html=1;" vertex="1" parent="LJ0KD-g8AK2NQayHYIzr-16">
          <mxGeometry y="86" width="160" height="94" as="geometry" />
        </mxCell>
        <mxCell id="LJ0KD-g8AK2NQayHYIzr-20" value="" style="endArrow=none;html=1;rounded=0;exitX=1;exitY=0.5;exitDx=0;exitDy=0;entryX=0.083;entryY=0.5;entryDx=0;entryDy=0;entryPerimeter=0;" edge="1" parent="1" source="LJ0KD-g8AK2NQayHYIzr-1" target="LJ0KD-g8AK2NQayHYIzr-2">
          <mxGeometry relative="1" as="geometry">
            <mxPoint x="340" y="380" as="sourcePoint" />
            <mxPoint x="500" y="380" as="targetPoint" />
          </mxGeometry>
        </mxCell>
        <mxCell id="LJ0KD-g8AK2NQayHYIzr-21" value="1" style="resizable=0;html=1;whiteSpace=wrap;align=right;verticalAlign=bottom;" connectable="0" vertex="1" parent="LJ0KD-g8AK2NQayHYIzr-20">
          <mxGeometry x="1" relative="1" as="geometry" />
        </mxCell>
        <mxCell id="LJ0KD-g8AK2NQayHYIzr-22" value="" style="endArrow=none;html=1;rounded=0;exitX=1.006;exitY=0.1;exitDx=0;exitDy=0;exitPerimeter=0;entryX=0;entryY=0.5;entryDx=0;entryDy=0;" edge="1" parent="1" source="LJ0KD-g8AK2NQayHYIzr-5" target="LJ0KD-g8AK2NQayHYIzr-15">
          <mxGeometry relative="1" as="geometry">
            <mxPoint x="340" y="380" as="sourcePoint" />
            <mxPoint x="500" y="380" as="targetPoint" />
          </mxGeometry>
        </mxCell>
        <mxCell id="LJ0KD-g8AK2NQayHYIzr-23" value="1" style="resizable=0;html=1;whiteSpace=wrap;align=right;verticalAlign=bottom;" connectable="0" vertex="1" parent="LJ0KD-g8AK2NQayHYIzr-22">
          <mxGeometry x="1" relative="1" as="geometry" />
        </mxCell>
        <mxCell id="LJ0KD-g8AK2NQayHYIzr-24" value="" style="endArrow=none;html=1;rounded=0;exitX=0.5;exitY=1;exitDx=0;exitDy=0;" edge="1" parent="1" source="LJ0KD-g8AK2NQayHYIzr-15" target="LJ0KD-g8AK2NQayHYIzr-11">
          <mxGeometry relative="1" as="geometry">
            <mxPoint x="340" y="380" as="sourcePoint" />
            <mxPoint x="500" y="380" as="targetPoint" />
          </mxGeometry>
        </mxCell>
        <mxCell id="LJ0KD-g8AK2NQayHYIzr-25" value="" style="endArrow=none;html=1;rounded=0;exitX=1;exitY=0.5;exitDx=0;exitDy=0;entryX=0;entryY=0.5;entryDx=0;entryDy=0;" edge="1" parent="1" source="LJ0KD-g8AK2NQayHYIzr-2" target="LJ0KD-g8AK2NQayHYIzr-4">
          <mxGeometry relative="1" as="geometry">
            <mxPoint x="340" y="380" as="sourcePoint" />
            <mxPoint x="500" y="380" as="targetPoint" />
          </mxGeometry>
        </mxCell>
        <mxCell id="LJ0KD-g8AK2NQayHYIzr-26" value="N" style="resizable=0;html=1;whiteSpace=wrap;align=right;verticalAlign=bottom;" connectable="0" vertex="1" parent="LJ0KD-g8AK2NQayHYIzr-25">
          <mxGeometry x="1" relative="1" as="geometry" />
        </mxCell>
        <mxCell id="LJ0KD-g8AK2NQayHYIzr-29" value="" style="endArrow=none;html=1;rounded=0;exitX=1;exitY=0.5;exitDx=0;exitDy=0;entryX=0;entryY=0.5;entryDx=0;entryDy=0;" edge="1" parent="1" source="LJ0KD-g8AK2NQayHYIzr-15" target="LJ0KD-g8AK2NQayHYIzr-18">
          <mxGeometry relative="1" as="geometry">
            <mxPoint x="720" y="160" as="sourcePoint" />
            <mxPoint x="500" y="380" as="targetPoint" />
          </mxGeometry>
        </mxCell>
        <mxCell id="LJ0KD-g8AK2NQayHYIzr-30" value="N" style="resizable=0;html=1;whiteSpace=wrap;align=right;verticalAlign=bottom;" connectable="0" vertex="1" parent="LJ0KD-g8AK2NQayHYIzr-29">
          <mxGeometry x="1" relative="1" as="geometry" />
        </mxCell>
      </root>
    </mxGraphModel>
  </diagram>
</mxfile>
